<svg xmlns="http://www.w3.org/2000/svg" width="48" height="48" viewBox="0 0 1200 1200">
  <path fill-rule="nonzero" fill="#000"
     d="m 131.61992,903.59075 v -330.312 h 303.21799 v -70.86 H 131.61992 v -256.328 h 356.35899 v -71.906 H 44.087921 v 729.406 z m -163.374999,-960.999985 6,-7 3,-1 -1,3 -7,6 c 1,1 1,2 2,1 0,1 1,2 0,2 -0.131832,0.487419 -0.512581,0.868168 -1,1 -0.270363,-1.213934 -0.983431,-2.283537 -2,-3 -0.333333,-0.06667 -0.5,0.1 -0.5,0.5 0,0.4 -0.5,0.833333 -1.5,1.3 -1,0.466667 -1.266667,0.2 -0.8,-0.8 0.466667,-1 0.9,-1.5 1.3,-1.5 0.4,0 0.566667,-0.166667 0.5,-0.5 -0.716463,-1.016569 -1.786066,-1.729637 -3,-2 0.131832,-0.487419 0.512581,-0.868168 1,-1 0,-1 1,0 2,0 -1,1 0,1 1,2 m 6,-7 v 2 h 2 l -1.8,-0.2 -0.2,-1.8"
     fill="#000000"
     id="path160" />
  <path fill-rule="nonzero" fill="#000"
     d="m 725.31936,885.4875 c -31.25,-20.14 -55.21233,-42.71267 -71.88699,-67.718 l -8.353,85.437 h -79.19 l -0.56986,-728.47537 91.30404,0.81645 -3.19418,297.62193 c 17.39333,-32.43733 42.74632,-56.74967 76.05899,-72.937 33.31267,-16.18733 70.823,-24.875 112.531,-26.063 52.10933,0 97.26567,11.64067 135.469,34.922 38.20334,23.28133 69.88034,55.75533 95.03104,97.422 21.5333,40.64 32.3,87.00966 32.3,139.10899 0,52.09934 -10.5937,98.641 -31.781,139.625 -21.188,40.984 -51.058,73.286 -89.61004,96.906 -38.54733,23.61 -83.52633,35.41733 -134.937,35.422 -50.85133,-1.04134 -91.90867,-11.635 -123.172,-31.781 z m 199.544,-70.328 c 26.75,-16.312 47.58833,-39.062 62.515,-68.25 14.93804,-29.172 22.40704,-63.21366 22.40704,-102.125 0,-38.89 -7.469,-72.92633 -22.40704,-102.10899 -14.93667,-29.172 -35.775,-51.922 -62.515,-68.25 -26.75,-16.31333 -57.14067,-24.475 -91.172,-24.485 -34.73333,0 -65.473,8.16167 -92.219,24.485 -26.746,16.32333 -47.58367,39.07333 -62.513,68.25 -14.93999,29.18666 -22.40999,63.22299 -22.40999,102.10899 0,38.906 7.47,72.94767 22.40999,102.125 14.93333,29.188 35.771,51.938 62.513,68.25 26.75,16.328 57.48967,24.48967 92.219,24.485 34.03067,0 64.42133,-8.16167 91.172,-24.485 z"
     style="fill:#000000"
     id="path662" />
     </svg>