<svg xmlns="http://www.w3.org/2000/svg" width="48" height="48" viewBox="0 0 1200 1200">
  <path fill-rule="nonzero" fill="#000"
   d="M498.276 53.2065C500.121 52.7206 502.944 52.9807 504.891 52.9247C514.088 52.6604 523.207 53.1097 532.377 53.734C553.35 55.162 574.495 56.7436 595.194 60.5843C630.193 67.0786 665.324 78.5841 697.637 93.4215C728.409 107.551 758.95 125.567 785.906 146.1C790.729 149.774 795.097 154.002 799.755 157.877C805.393 162.567 811.26 167.113 816.678 172.055C840.991 194.233 863.572 219.521 882.667 246.328C901.486 272.746 917.446 301.072 931.145 330.437C935.623 340.036 939.961 350.22 943.378 360.25C945.048 365.154 946.483 370.241 948.324 375.076L952.36 387.707L954.31 394.66L955.688 399.548C956.656 404.007 958.221 408.428 959.157 412.898C964.635 439.047 968.871 465.208 970.039 491.937C970.317 498.318 970.902 505.011 970.574 511.375C969.732 527.733 969.711 543.9 967.71 560.211C963.947 590.882 957.617 621.145 947.933 650.5C941.183 670.961 932.551 690.908 922.991 710.198C902.934 750.668 877.636 788.48 846.819 821.595C779.96 893.443 690.25 945.169 593.5 963.35C571.246 967.531 548.722 969.507 526.117 970.353C416.353 974.879 306.48 933.883 222.155 864.49C218.771 861.706 215.725 858.495 212.418 855.609C129.83 783.521 73.6537 682.311 58.1402 573.693C56.902 565.024 55.4001 556.257 54.6674 547.529C52.6265 523.216 52.3061 498.066 54.5284 473.75C61.9365 392.689 92.5461 313.933 140.073 248.018C147.228 238.095 154.313 228.085 162.255 218.764C186.518 190.292 214.246 163.846 244.39 141.644C302.358 98.9486 370.132 70.4428 441.098 58.6786C460.195 55.5127 479.054 54.74 498.276 53.2065ZM497.924 142.221C476.938 143.54 456.091 146.089 435.564 150.78C360.524 167.927 290.346 209.063 239.25 266.755C174.993 339.307 138.315 435.448 144.085 532.75L144.649 536.959L149.84 576.077L158.227 611.359C158.431 612.293 158.726 613.096 159.025 614L165.045 632.5L180.641 669.392C185.821 681.123 192.563 692.161 199.325 703.026C242.504 772.399 309.128 828.131 385.62 857.146C409.885 866.35 434.723 872.797 460.347 876.718C468.521 877.969 476.737 879.387 485 879.971C498.453 880.922 512.265 880.706 525.741 880.399C536.911 879.971 548.164 879.345 559.25 877.82C618.598 869.655 678.48 844.647 726.541 809.004C747.229 793.661 766.084 775.74 783.56 756.868C849.677 685.473 883.485 589.171 879.821 492.281C879.301 478.525 877.115 464.875 874.709 451.353C864.498 393.959 840.708 340.365 806.085 293.528C792.812 275.574 778.408 258.663 762 243.479C703.648 189.478 631.876 154.468 552.75 144.785C534.795 142.588 516.962 141.448 498.863 142.181L497.924 142.221Z"/>
   <path d="M467.397 306.712C483.435 306.32 499.537 306.533 515.585 306.448C534.342 306.347 553.429 305.472 571.989 308.6C582.318 310.341 593.36 314.104 602.813 318.571C629.297 331.086 650.653 351.437 664.977 376.888C668.466 383.086 671.919 389.646 674.27 396.375L677.646 406.431L681.416 423.698C682.371 428.115 682.228 433.146 682.311 437.659C682.456 445.472 682.468 453.286 682.455 461.1C682.421 481.671 682.446 502.244 682.347 522.814C682.136 566.549 682.58 610.274 682.171 654.011C682.076 664.217 682.523 674.474 682.225 684.667C682.149 687.272 681.991 689.627 681.119 692.102L680.824 692.89L680.231 694.579C679.015 697.575 677.75 700.43 676.051 703.192C669.879 713.227 659.807 719.86 648.5 722.663L646.222 723.179C633.65 725.252 620.952 722.573 610.693 714.983C602.193 708.694 596.672 699.144 594.519 688.898C593.321 683.195 593.539 677.43 593.545 671.638C593.554 664.482 593.527 657.325 593.518 650.168C593.479 618.557 593.292 586.966 593.027 555.364C592.925 543.178 594.438 530.116 592.876 518.071C588.774 523.075 586.015 528.924 583.047 534.629C566.445 566.544 558.441 603.021 556.193 638.771C555.682 646.893 555.866 655.204 555.905 663.345C555.926 667.574 556.211 671.954 555.676 676.146L555.56 677C554.409 686.326 550.699 694.143 544.534 701.205C539.687 706.264 533.534 709.986 526.988 712.357L525.467 712.917C514.32 716.643 501 714.704 490.75 709.385C481.441 704.554 473.163 694.336 469.995 684.32L469.75 683.525C467.997 678.032 468.087 672.451 468.051 666.736C468.005 659.15 468.127 651.525 467.798 643.945C466.33 610.042 460.112 576.735 446.493 545.558C442.23 535.797 437.774 526.452 430.648 518.457C430.138 523.118 430.389 527.857 430.369 532.541C430.335 540.444 430.3 548.347 430.237 556.25C429.99 586.946 430.068 617.64 430.016 648.337C430.002 656.485 429.956 664.633 429.877 672.78C429.829 677.765 430.081 683.065 429.226 687.982C428.243 693.632 425.655 699.42 422.506 704.164C415.962 714.026 405.397 720.837 393.828 723.05C382.341 725.247 369.967 722.733 360.345 716.121C351.406 709.978 344.244 699.466 342.368 688.715L342.25 687.996L341.634 683.25C341.176 675.873 341.438 668.317 341.382 660.913C341.272 646.45 341.241 631.996 341.343 617.532C341.553 587.786 341.363 558.027 341.398 528.279C341.419 509.895 341.538 491.499 341.355 473.117C341.175 455.165 339.61 435.755 343.175 418.098C348.024 394.085 358.81 371.822 375.056 353.406C398.509 326.82 431.797 308.993 467.397 306.712ZM475.506 396.734C470.09 397.021 465.595 397.523 460.582 399.659L459.937 399.927C449.122 404.534 442.007 414.182 436.232 423.998C459.959 448.316 479.097 476.566 494.02 507C499.612 518.402 505.107 530.215 508.415 542.5L513.101 559.748C514.154 548.885 517.457 538.956 520.835 528.639C522.635 523.798 524.263 518.743 526.361 514.03C537.612 488.748 552.453 465.658 569.919 444.271C575.624 437.285 581.303 430.221 587.708 423.861C581.336 413.564 571.226 400.462 558.625 397.752L557 397.47L556.155 397.327C547.831 396.052 538.374 396.813 529.93 396.762C511.802 396.653 493.631 396.489 475.506 396.734Z"/>
</svg>



