<svg xmlns="http://www.w3.org/2000/svg" width="48" height="48" viewBox="0 0 1200 1200">
  <path fill-rule="nonzero" fill="#000"
     d="m 318.49656,543.9272 q 5.1593,10.3186 9.88866,21.92704 4.72936,11.17849 9.45873,22.35698 4.29942,-11.60843 9.02878,-22.78692 4.72936,-11.60844 10.31861,-21.92704 l 208.9518,-378.77889 q 5.1593,-9.88867 11.17849,-12.03838 6.44913,-2.14971 17.62762,-2.14971 h 61.48171 V 766.63715 H 583.34082 V 313.90823 q 0,-9.02878 0.42994,-19.34738 0.42994,-10.31861 1.28983,-21.06716 L 373.95907,658.72171 q -9.88866,19.34739 -30.09594,19.34739 h -12.03837 q -20.20728,0 -30.09594,-19.34739 L 85.897942,272.20386 q 1.289826,11.17849 1.719768,21.92704 0.859884,10.74855 0.859884,19.77733 V 766.63715 H 15.387456 V 150.53028 H 76.86916 q 11.178492,0 17.19768,2.14971 6.01919,2.14971 11.60843,12.03838 L 318.49656,543.9272 Z"
     fill="#000000"
     id="path160" />
  <path fill-rule="nonzero" fill="#000"
     d="m 725.31936,885.4875 c -31.25,-20.14 -55.21233,-42.71267 -71.88699,-67.718 l -8.353,85.437 h -79.19 l -0.56986,-728.47537 91.30404,0.81645 -3.19418,297.62193 c 17.39333,-32.43733 42.74632,-56.74967 76.05899,-72.937 33.31267,-16.18733 70.823,-24.875 112.531,-26.063 52.10933,0 97.26567,11.64067 135.469,34.922 38.20334,23.28133 69.88034,55.75533 95.03104,97.422 21.5333,40.64 32.3,87.00966 32.3,139.10899 0,52.09934 -10.5937,98.641 -31.781,139.625 -21.188,40.984 -51.058,73.286 -89.61004,96.906 -38.54733,23.61 -83.52633,35.41733 -134.937,35.422 -50.85133,-1.04134 -91.90867,-11.635 -123.172,-31.781 z m 199.544,-70.328 c 26.75,-16.312 47.58833,-39.062 62.515,-68.25 14.93804,-29.172 22.40704,-63.21366 22.40704,-102.125 0,-38.89 -7.469,-72.92633 -22.40704,-102.10899 -14.93667,-29.172 -35.775,-51.922 -62.515,-68.25 -26.75,-16.31333 -57.14067,-24.475 -91.172,-24.485 -34.73333,0 -65.473,8.16167 -92.219,24.485 -26.746,16.32333 -47.58367,39.07333 -62.513,68.25 -14.93999,29.18666 -22.40999,63.22299 -22.40999,102.10899 0,38.906 7.47,72.94767 22.40999,102.125 14.93333,29.188 35.771,51.938 62.513,68.25 26.75,16.328 57.48967,24.48967 92.219,24.485 34.03067,0 64.42133,-8.16167 91.172,-24.485 z"
     style="fill:#000000"
     id="path662" />
     </svg>