<svg xmlns="http://www.w3.org/2000/svg" width="48" height="48" viewBox="0 0 1200 1200">
  <path fill-rule="nonzero" fill="#000"
     d="M 38.463008,880.7029 V 161.79248 H 111.84673 L 294.01104,678.88034 477.03868,161.79248 h 71.65705 V 880.7029 H 475.31201 V 384.72066 L 301.78108,876.7456 H 287.10434 L 112.71007,384.72066 V 880.7029 Z"
     style="font-size:1067.16px;font-family:'Potti Sreeramulu';-inkscape-font-specification:'Potti Sreeramulu';stroke-width:1.25987"
     id="path160" />
  <path fill-rule="nonzero" fill="#000"
     d="m 739.76132,870.42913 c -31.25,-20.14 -55.21233,-42.71267 -71.88699,-67.718 l -8.353,85.437 h -79.19 l -0.56986,-728.47537 91.30404,0.81645 -3.19418,297.62193 c 17.39333,-32.43733 42.74632,-56.74967 76.05899,-72.937 33.31267,-16.18733 70.823,-24.875 112.531,-26.063 52.10933,0 97.26567,11.64067 135.469,34.922 38.20338,23.28133 69.88038,55.75533 95.03108,97.422 21.5333,40.64 32.3,87.00966 32.3,139.10899 0,52.09934 -10.5937,98.641 -31.781,139.625 -21.188,40.984 -51.058,73.286 -89.61008,96.906 -38.54733,23.61 -83.52633,35.41733 -134.937,35.422 -50.85133,-1.04134 -91.90867,-11.635 -123.172,-31.781 z m 199.544,-70.328 c 26.75,-16.312 47.58833,-39.062 62.51498,-68.25 14.9381,-29.172 22.4071,-63.21366 22.4071,-102.125 0,-38.89 -7.469,-72.92633 -22.4071,-102.10899 -14.93665,-29.172 -35.77498,-51.922 -62.51498,-68.25 -26.75,-16.31333 -57.14067,-24.475 -91.172,-24.485 -34.73333,0 -65.473,8.16167 -92.219,24.485 -26.746,16.32333 -47.58367,39.07333 -62.513,68.25 -14.93999,29.18666 -22.40999,63.22299 -22.40999,102.10899 0,38.906 7.47,72.94767 22.40999,102.125 14.93333,29.188 35.771,51.938 62.513,68.25 26.75,16.328 57.48967,24.48967 92.219,24.485 34.03067,0 64.42133,-8.16167 91.172,-24.485 z"
     style="fill:#000000"
     id="path662" />
     </svg>