<svg xmlns="http://www.w3.org/2000/svg" width="48" height="48" viewBox="0 0 1200 1200">
  <path fill-rule="nonzero" fill="#000"
     d= d="M5443 5609 c4 -1003 7 -2644 7 -3646 l0 -1823 394 0 395 0 5 43 c4
23 22 209 41 412 20 204 37 376 38 384 1 8 27 -19 58 -60 161 -213 363 -397
644 -586 213 -143 478 -241 793 -292 656 -107 1321 10 1818 320 230 143 500
388 653 592 287 384 457 819 528 1352 24 186 24 649 -1 830 -45 327 -110 565
-230 835 -172 388 -608 867 -1006 1107 -397 239 -825 353 -1327 354 -682 1
-1303 -232 -1672 -627 -79 -84 -173 -211 -217 -291 -16 -29 -31 -53 -34 -53
-6 0 -5 59 14 1770 7 652 12 1186 12 1187 -1 1 -208 5 -461 9 l-458 7 6 -1824z
m2851 -940 c670 -58 1199 -459 1449 -1095 189 -481 194 -1172 11 -1661 -191
-512 -562 -880 -1053 -1043 -290 -97 -669 -116 -976 -50 -217 47 -443 146
-615 268 -121 86 -306 270 -393 392 -75 106 -202 354 -241 471 -79 240 -107
410 -113 706 -6 257 3 386 43 583 81 405 287 776 566 1020 356 310 819 453
1322 409z"
     fill="#000000"
     id="path160" />
  <path fill-rule="nonzero" fill="#000"
     d= d="M5443 5609 c4 -1003 7 -2644 7 -3646 l0 -1823 394 0 395 0 5 43 c4
23 22 209 41 412 20 204 37 376 38 384 1 8 27 -19 58 -60 161 -213 363 -397
644 -586 213 -143 478 -241 793 -292 656 -107 1321 10 1818 320 230 143 500
388 653 592 287 384 457 819 528 1352 24 186 24 649 -1 830 -45 327 -110 565
-230 835 -172 388 -608 867 -1006 1107 -397 239 -825 353 -1327 354 -682 1
-1303 -232 -1672 -627 -79 -84 -173 -211 -217 -291 -16 -29 -31 -53 -34 -53
-6 0 -5 59 14 1770 7 652 12 1186 12 1187 -1 1 -208 5 -461 9 l-458 7 6 -1824z
m2851 -940 c670 -58 1199 -459 1449 -1095 189 -481 194 -1172 11 -1661 -191
-512 -562 -880 -1053 -1043 -290 -97 -669 -116 -976 -50 -217 47 -443 146
-615 268 -121 86 -306 270 -393 392 -75 106 -202 354 -241 471 -79 240 -107
410 -113 706 -6 257 3 386 43 583 81 405 287 776 566 1020 356 310 819 453
1322 409z"
     style="fill:#000000"
     id="path662" />
     </svg>