<svg xmlns="http://www.w3.org/2000/svg" width="48" height="48" viewBox="0 0 1200 1200">
  <path fill-rule="nonzero" fill="#000"
     d="M 38.463008,803.34593 V 161.56507 H 111.84673 L 294.01104,623.17625 477.03868,161.56507 h 71.65705 V 803.34593 H 475.31201 V 360.57601 L 301.78108,799.81319 H 287.10434 L 112.71007,360.57601 v 442.76992 z"
     style="font-size:1067.16px;font-family:'Potti Sreeramulu';-inkscape-font-specification:'Potti Sreeramulu';stroke-width:1.19037"
     id="path160" />
  <path fill-rule="nonzero" fill="#000"
     d="m 739.76132,794.1744 c -31.25,-17.97925 -55.21233,-38.13017 -71.88699,-60.45276 l -8.353,76.27074 h -79.19 l -0.56986,-650.31962 91.30404,0.72886 -3.19418,265.69104 c 17.39333,-28.95724 42.74632,-50.66118 76.05899,-65.11183 33.31267,-14.45064 70.823,-22.20624 112.531,-23.26678 52.10933,0 97.26567,10.39178 135.469,31.17533 38.20338,20.78355 69.88038,49.77352 95.03108,86.96991 21.5333,36.27987 32.3,77.67468 32.3,124.18444 0,46.50977 -10.5937,88.05813 -31.781,124.64509 -21.188,36.58696 -51.058,65.42338 -89.61008,86.50927 -38.54733,21.07696 -83.52633,31.61752 -134.937,31.62169 -50.85133,-0.92962 -91.90867,-10.38672 -123.172,-28.37132 z m 199.544,-62.78274 c 26.75,-14.56194 47.58833,-34.87117 62.51498,-60.92768 14.9381,-26.04223 22.4071,-56.43167 22.4071,-91.16834 0,-34.71762 -7.469,-65.10231 -22.4071,-91.15405 -14.93665,-26.04223 -35.77498,-46.35146 -62.51498,-60.92768 -26.75,-14.56313 -57.14067,-21.84916 -91.172,-21.85809 -34.73333,0 -65.473,7.28603 -92.219,21.85809 -26.746,14.57205 -47.58367,34.88128 -62.513,60.92768 -14.93999,26.05532 -22.40999,56.44 -22.40999,91.15405 0,34.7319 7.47,65.12135 22.40999,91.16834 14.93333,26.05651 35.771,46.36574 62.513,60.92768 26.75,14.57622 57.48967,21.86225 92.219,21.85808 34.03067,0 64.42133,-7.28603 91.172,-21.85808 z"
     style="fill:#000000"
     id="path662" />
     </svg>