<svg xmlns="http://www.w3.org/2000/svg" width="48" height="48" viewBox="0 0 1200 1200">
  <path fill-rule="nonzero" fill="#000"
     d="m -28983.464,-168524.07 c -31.25,-20.14 -55.212,-42.72 -71.887,-67.72 l -8.353,85.43 h -79.19 l -0.57,-728.47 91.304,0.82 -3.194,297.62 c 17.393,-32.44 42.746,-56.75 76.059,-72.94 33.313,-16.19 70.823,-24.87 112.531,-26.06 52.109,0 97.266,11.64 135.469,34.92 38.203,23.28 69.88,55.75 95.031,97.42 21.533,40.64 32.3,87.01 32.3,139.11 0,52.1 -10.594,98.64 -31.781,139.63 -21.188,40.98 -51.058,73.28 -89.61,96.9 -38.547,23.61 -83.526,35.42 -134.937,35.42 -50.851,-1.04 -91.909,-11.63 -123.172,-31.78 z m 199.544,-70.33 c 26.75,-16.31 47.588,-39.06 62.515,-68.25 14.938,-29.17 22.407,-63.22 22.407,-102.13 0,-38.89 -7.469,-72.92 -22.407,-102.11 -14.937,-29.17 -35.775,-51.92 -62.515,-68.25 -26.75,-16.31 -57.141,-24.47 -91.172,-24.48 -34.733,0 -65.473,8.16 -92.219,24.48 -26.746,16.33 -47.584,39.08 -62.513,68.25 -14.94,29.19 -22.41,63.23 -22.41,102.11 0,38.91 7.47,72.95 22.41,102.13 14.933,29.19 35.771,51.94 62.513,68.25 26.75,16.33 57.49,24.49 92.219,24.48 34.031,0 64.421,-8.16 91.172,-24.48 z"
     fill="#000000"
     id="path160" />
  <path fill-rule="nonzero" fill="#000"
     d="m 725.31936,885.4875 c -31.25,-20.14 -55.21233,-42.71267 -71.88699,-67.718 l -8.353,85.437 h -79.19 l -0.56986,-728.47537 91.30404,0.81645 -3.19418,297.62193 c 17.39333,-32.43733 42.74632,-56.74967 76.05899,-72.937 33.31267,-16.18733 70.823,-24.875 112.531,-26.063 52.10933,0 97.26567,11.64067 135.469,34.922 38.20334,23.28133 69.88034,55.75533 95.03104,97.422 21.5333,40.64 32.3,87.00966 32.3,139.10899 0,52.09934 -10.5937,98.641 -31.781,139.625 -21.188,40.984 -51.058,73.286 -89.61004,96.906 -38.54733,23.61 -83.52633,35.41733 -134.937,35.422 -50.85133,-1.04134 -91.90867,-11.635 -123.172,-31.781 z m 199.544,-70.328 c 26.75,-16.312 47.58833,-39.062 62.515,-68.25 14.93804,-29.172 22.40704,-63.21366 22.40704,-102.125 0,-38.89 -7.469,-72.92633 -22.40704,-102.10899 -14.93667,-29.172 -35.775,-51.922 -62.515,-68.25 -26.75,-16.31333 -57.14067,-24.475 -91.172,-24.485 -34.73333,0 -65.473,8.16167 -92.219,24.485 -26.746,16.32333 -47.58367,39.07333 -62.513,68.25 -14.93999,29.18666 -22.40999,63.22299 -22.40999,102.10899 0,38.906 7.47,72.94767 22.40999,102.125 14.93333,29.188 35.771,51.938 62.513,68.25 26.75,16.328 57.48967,24.48967 92.219,24.485 34.03067,0 64.42133,-8.16167 91.172,-24.485 z"
     style="fill:#000000"
     id="path662" />
     </svg>