<?xml version="1.0" standalone="no"?>
<!DOCTYPE svg PUBLIC "-//W3C//DTD SVG 20010904//EN"
 "http://www.w3.org/TR/2001/REC-SVG-20010904/DTD/svg10.dtd">
<svg version="1.0" xmlns="http://www.w3.org/2000/svg"
 width="1024.000000pt" height="1024.000000pt" viewBox="0 0 1024.000000 1024.000000"
 preserveAspectRatio="xMidYMid meet">
<metadata>
Created by potrace 1.14, written by Peter Selinger 2001-2017
</metadata>
<g transform="translate(0.000000,1024.000000) scale(0.100000,-0.100000)"
fill="#000000" stroke="none">
<path d="M4808 10233 c-2 -5 -3 -153 -3 -329 l1 -322 -179 -1 c-98 0 -207 -3
-240 -6 -34 -2 -98 -7 -142 -10 -44 -3 -107 -10 -140 -15 -33 -5 -80 -11 -105
-14 -60 -7 -282 -46 -290 -51 -4 -2 -22 -7 -41 -10 -157 -27 -698 -201 -733
-236 -6 -5 -16 -9 -22 -9 -42 0 -494 -237 -659 -345 -53 -34 -260 -179 -271
-190 -7 -5 -24 -19 -40 -30 -15 -11 -32 -25 -38 -30 -6 -6 -21 -17 -32 -25
-23 -16 -101 -83 -193 -165 -77 -69 -273 -266 -348 -350 -188 -213 -377 -475
-518 -720 -56 -96 -205 -387 -205 -399 0 -3 -11 -29 -25 -58 -41 -89 -144
-364 -160 -428 -2 -8 -18 -62 -34 -120 -36 -123 -93 -374 -106 -470 -2 -14 -6
-38 -9 -55 -3 -16 -7 -48 -10 -70 -3 -22 -8 -58 -10 -80 -5 -37 -9 -74 -22
-225 -7 -81 -7 -545 0 -615 3 -33 9 -85 12 -115 5 -52 20 -175 30 -250 3 -19
18 -105 35 -190 88 -448 262 -916 489 -1310 92 -160 94 -164 100 -170 3 -3 25
-36 50 -75 137 -216 349 -474 570 -695 230 -230 443 -405 695 -569 61 -39 115
-75 120 -79 15 -11 200 -115 280 -157 59 -30 191 -91 380 -175 22 -9 70 -28
108 -40 l67 -23 0 -168 0 -169 48 0 c341 -3 2265 1 2270 4 4 3 7 40 7 83 l-1
79 119 28 c311 72 624 179 872 297 50 23 92 43 95 44 14 3 263 137 270 144 3
3 19 13 35 21 17 8 35 19 40 23 6 4 52 34 104 67 l93 59 42 -32 c22 -18 43
-35 46 -38 3 -3 34 -25 70 -50 200 -135 474 -254 695 -299 178 -37 243 -44
420 -44 173 -1 340 18 472 53 21 5 49 12 63 15 71 13 333 119 402 162 21 13
42 24 47 24 15 0 234 150 298 204 223 190 392 404 525 667 l38 77 0 796 0 796
-41 82 c-38 76 -137 243 -165 278 -121 153 -161 199 -238 274 -85 83 -280 237
-336 266 -14 7 -27 16 -30 20 -8 11 -272 137 -327 157 -33 11 -53 23 -53 33 1
73 -10 546 -14 585 -4 46 -7 74 -22 195 -6 49 -40 259 -49 300 -3 14 -7 36
-10 50 -24 130 -106 414 -179 616 -47 131 -215 506 -235 524 -3 3 -13 21 -22
40 -9 19 -42 77 -73 129 -31 51 -56 97 -56 102 0 5 -4 9 -10 9 -5 0 -10 4 -10
9 0 8 -100 163 -133 206 -143 190 -191 252 -201 260 -6 6 -28 30 -48 55 -123
151 -349 373 -538 531 -402 334 -896 609 -1397 779 -83 28 -181 58 -219 68
l-68 18 -1 402 0 402 -477 0 c-262 0 -478 -3 -480 -7z"/>
</g>
</svg>
